<?xml version="1.0" encoding="UTF-8" standalone="no"?>
<!-- Created with Inkscape (http://www.inkscape.org/) -->

<svg
   version="1.1"
   id="svg1"
   width="94.487999"
   height="93.365334"
   viewBox="0 0 94.487999 93.365334"
   xmlns="http://www.w3.org/2000/svg"
   xmlns:svg="http://www.w3.org/2000/svg">
  <defs
     id="defs1" />
  <g
     id="g1">
    <path
       id="path1"
       d="m 36.00056,-8.78741 c 0,18.78678 -15.22929,34.01606 -34.01609,34.01606 -18.78677,0 -34.01607,-15.22928 -34.01607,-34.01606 0,-18.78681 15.2293,-34.01609 34.01607,-34.01609 18.7868,0 34.01609,15.22928 34.01609,34.01609 z"
       style="fill:none;stroke:#4cae4f;stroke-width:1.99255;stroke-linecap:butt;stroke-linejoin:miter;stroke-miterlimit:10;stroke-dasharray:none;stroke-opacity:1"
       transform="matrix(1.3333333,0,0,-1.3333333,44.598667,34.966667)" />
    <path
       id="path2"
       d="M 9.35448,-9.92155 V 0"
       style="fill:none;stroke:#4cae4f;stroke-width:2.98883;stroke-linecap:butt;stroke-linejoin:miter;stroke-miterlimit:10;stroke-dasharray:none;stroke-opacity:1"
       transform="matrix(1.3333333,0,0,-1.3333333,44.598667,34.966667)" />
    <path
       id="path3"
       d="M 9.35448,0 C 9.35448,5.1664 5.1664,9.35448 0,9.35448 -5.1664,9.35448 -9.35448,5.1664 -9.35448,0 c 0,-5.1664 4.18808,-9.35448 9.35448,-9.35448 5.1664,0 9.35448,4.18808 9.35448,9.35448 z"
       style="fill:none;stroke:#4cae4f;stroke-width:2.98883;stroke-linecap:butt;stroke-linejoin:miter;stroke-miterlimit:10;stroke-dasharray:none;stroke-opacity:1"
       transform="matrix(1.3333333,0,0,-1.3333333,44.598667,34.966667)" />
    <path
       id="path4"
       d="M -15.95717,9.2126 0,18.42523"
       style="fill:none;stroke:#3c7a4f;stroke-width:1.49442;stroke-linecap:butt;stroke-linejoin:miter;stroke-miterlimit:10;stroke-dasharray:none;stroke-opacity:1"
       transform="matrix(1.3333333,0,0,-1.3333333,44.598667,34.966667)" />
    <path
       id="path5"
       d="M 0,18.42523 15.95717,9.2126"
       style="fill:none;stroke:#3c7a4f;stroke-width:1.49442;stroke-linecap:butt;stroke-linejoin:miter;stroke-miterlimit:10;stroke-dasharray:none;stroke-opacity:1"
       transform="matrix(1.3333333,0,0,-1.3333333,44.598667,34.966667)" />
    <path
       id="path6"
       d="M 15.95717,9.2126 V -9.2126"
       style="fill:none;stroke:#3c7a4f;stroke-width:1.49442;stroke-linecap:butt;stroke-linejoin:miter;stroke-miterlimit:10;stroke-dasharray:none;stroke-opacity:1"
       transform="matrix(1.3333333,0,0,-1.3333333,44.598667,34.966667)" />
    <path
       id="path7"
       d="M 15.95717,-9.2126 0,-18.42523"
       style="fill:none;stroke:#3c7a4f;stroke-width:1.49442;stroke-linecap:butt;stroke-linejoin:miter;stroke-miterlimit:10;stroke-dasharray:none;stroke-opacity:1"
       transform="matrix(1.3333333,0,0,-1.3333333,44.598667,34.966667)" />
    <path
       id="path8"
       d="M -15.95717,-9.2126 0,-18.42523"
       style="fill:none;stroke:#d9d9d9;stroke-width:1.49442;stroke-linecap:butt;stroke-linejoin:miter;stroke-miterlimit:10;stroke-dasharray:none;stroke-opacity:1"
       transform="matrix(1.3333333,0,0,-1.3333333,44.598667,34.966667)" />
    <path
       id="path9"
       d="M -15.95717,-9.2126 V 9.2126"
       style="fill:none;stroke:#d9d9d9;stroke-width:1.49442;stroke-linecap:butt;stroke-linejoin:miter;stroke-miterlimit:10;stroke-dasharray:none;stroke-opacity:1"
       transform="matrix(1.3333333,0,0,-1.3333333,44.598667,34.966667)" />
    <path
       id="path10"
       d="m -13.12233,9.2126 c 0,1.56566 -1.2692,2.83485 -2.83484,2.83485 -1.56566,0 -2.83485,-1.26919 -2.83485,-2.83485 0,-1.56564 1.26919,-2.83484 2.83485,-2.83484 1.56564,0 2.83484,1.2692 2.83484,2.83484 z"
       style="fill:#3c7a4f;fill-opacity:1;fill-rule:nonzero;stroke:#3c7a4f;stroke-width:0.3985;stroke-linecap:butt;stroke-linejoin:miter;stroke-miterlimit:10;stroke-dasharray:none;stroke-opacity:1"
       transform="matrix(1.3333333,0,0,-1.3333333,44.598667,34.966667)" />
    <path
       id="path11"
       d="m 2.83484,18.42523 c 0,1.56565 -1.2692,2.83486 -2.83484,2.83486 -1.56564,0 -2.83484,-1.26921 -2.83484,-2.83486 0,-1.56566 1.2692,-2.83485 2.83484,-2.83485 1.56564,0 2.83484,1.26919 2.83484,2.83485 z"
       style="fill:#3c7a4f;fill-opacity:1;fill-rule:nonzero;stroke:#3c7a4f;stroke-width:0.3985;stroke-linecap:butt;stroke-linejoin:miter;stroke-miterlimit:10;stroke-dasharray:none;stroke-opacity:1"
       transform="matrix(1.3333333,0,0,-1.3333333,44.598667,34.966667)" />
    <path
       id="path12"
       d="m 18.79202,9.2126 c 0,1.56566 -1.26919,2.83485 -2.83485,2.83485 -1.56564,0 -2.83484,-1.26919 -2.83484,-2.83485 0,-1.56564 1.2692,-2.83484 2.83484,-2.83484 1.56566,0 2.83485,1.2692 2.83485,2.83484 z"
       style="fill:#3c7a4f;fill-opacity:1;fill-rule:nonzero;stroke:#3c7a4f;stroke-width:0.3985;stroke-linecap:butt;stroke-linejoin:miter;stroke-miterlimit:10;stroke-dasharray:none;stroke-opacity:1"
       transform="matrix(1.3333333,0,0,-1.3333333,44.598667,34.966667)" />
    <path
       id="path13"
       d="m 18.79202,-9.2126 c 0,1.56564 -1.26919,2.83484 -2.83485,2.83484 -1.56564,0 -2.83484,-1.2692 -2.83484,-2.83484 0,-1.56566 1.2692,-2.83485 2.83484,-2.83485 1.56566,0 2.83485,1.26919 2.83485,2.83485 z"
       style="fill:#3c7a4f;fill-opacity:1;fill-rule:nonzero;stroke:#3c7a4f;stroke-width:0.3985;stroke-linecap:butt;stroke-linejoin:miter;stroke-miterlimit:10;stroke-dasharray:none;stroke-opacity:1"
       transform="matrix(1.3333333,0,0,-1.3333333,44.598667,34.966667)" />
    <path
       id="path14"
       d="m 2.83484,-18.42523 c 0,1.56566 -1.2692,2.83485 -2.83484,2.83485 -1.56564,0 -2.83484,-1.26919 -2.83484,-2.83485 0,-1.56565 1.2692,-2.83486 2.83484,-2.83486 1.56564,0 2.83484,1.26921 2.83484,2.83486 z"
       style="fill:#3c7a4f;fill-opacity:1;fill-rule:nonzero;stroke:#3c7a4f;stroke-width:0.3985;stroke-linecap:butt;stroke-linejoin:miter;stroke-miterlimit:10;stroke-dasharray:none;stroke-opacity:1"
       transform="matrix(1.3333333,0,0,-1.3333333,44.598667,34.966667)" />
    <path
       id="path15"
       d="m -13.12233,-9.2126 c 0,1.56564 -1.2692,2.83484 -2.83484,2.83484 -1.56566,0 -2.83485,-1.2692 -2.83485,-2.83484 0,-1.56566 1.26919,-2.83485 2.83485,-2.83485 1.56564,0 2.83484,1.26919 2.83484,2.83485 z"
       style="fill:#b3b3b3;fill-opacity:1;fill-rule:nonzero;stroke:#b3b3b3;stroke-width:0.3985;stroke-linecap:butt;stroke-linejoin:miter;stroke-miterlimit:10;stroke-dasharray:none;stroke-opacity:1"
       transform="matrix(1.3333333,0,0,-1.3333333,44.598667,34.966667)" />
    <path
       id="path16"
       d="m -3.68521,-28.3468 c 0,2.66144 -2.15747,4.8189 -4.81891,4.8189 -2.66144,0 -4.81891,-2.15746 -4.81891,-4.8189 0,-2.66144 2.15747,-4.81891 4.81891,-4.81891 2.66144,0 4.81891,2.15747 4.81891,4.81891 z"
       style="fill:#3c7a4f;fill-opacity:1;fill-rule:nonzero;stroke:#3c7a4f;stroke-width:0.3985;stroke-linecap:butt;stroke-linejoin:miter;stroke-miterlimit:10;stroke-dasharray:none;stroke-opacity:1"
       transform="matrix(1.3333333,0,0,-1.3333333,44.598667,34.966667)" />
    <path
       id="path17"
       d="M 22.55986,-25.51193 V 0"
       style="fill:none;stroke:#76a284;stroke-width:2.98883;stroke-linecap:butt;stroke-linejoin:miter;stroke-miterlimit:10;stroke-dasharray:none;stroke-opacity:1"
       transform="matrix(1.3333333,0,0,-1.3333333,44.598667,34.966667)" />
    <path
       id="path18"
       d="m 22.55942,-25.51193 c 0,3.91391 -3.17278,7.08668 -7.08669,7.08668 -3.91391,0 -7.08668,-3.17277 -7.08668,-7.08668 0,-3.91393 3.17277,-7.0867 7.08668,-7.0867 3.91391,0 7.08669,3.17277 7.08669,7.0867 z"
       style="fill:none;stroke:#76a284;stroke-width:2.98883;stroke-linecap:butt;stroke-linejoin:miter;stroke-miterlimit:10;stroke-dasharray:none;stroke-opacity:1"
       transform="matrix(1.3333333,0,0,-1.3333333,44.598667,34.966667)" />
    <path
       id="path19"
       d="m -2.35342,-22.25882 -1.07529,0.9213"
       style="fill:none;stroke:#3c7a4f;stroke-width:1.19553;stroke-linecap:butt;stroke-linejoin:miter;stroke-miterlimit:10;stroke-dasharray:none;stroke-opacity:1"
       transform="matrix(1.3333333,0,0,-1.3333333,44.598667,34.966667)" />
    <path
       id="path20"
       d="m -3.04593,-24.5915 -2.58224,2.21285"
       style="fill:none;stroke:#3c7a4f;stroke-width:1.19553;stroke-linecap:butt;stroke-linejoin:miter;stroke-miterlimit:10;stroke-dasharray:none;stroke-opacity:1"
       transform="matrix(1.3333333,0,0,-1.3333333,44.598667,34.966667)" />
    <path
       id="path21"
       d="m -1.6579,-28.67856 -0.26558,2.25093"
       style="fill:none;stroke:#3c7a4f;stroke-width:1.19553;stroke-linecap:butt;stroke-linejoin:miter;stroke-miterlimit:10;stroke-dasharray:none;stroke-opacity:1"
       transform="matrix(1.3333333,0,0,-1.3333333,44.598667,34.966667)" />
    <path
       id="path22"
       d="m 0.83954,-29.24042 -0.46541,3.9413"
       style="fill:none;stroke:#3c7a4f;stroke-width:1.19553;stroke-linecap:butt;stroke-linejoin:miter;stroke-miterlimit:10;stroke-dasharray:none;stroke-opacity:1"
       transform="matrix(1.3333333,0,0,-1.3333333,44.598667,34.966667)" />
    <path
       id="path23"
       d="m 3.337,-29.80142 -0.66523,5.62991"
       style="fill:none;stroke:#3c7a4f;stroke-width:1.19553;stroke-linecap:butt;stroke-linejoin:miter;stroke-miterlimit:10;stroke-dasharray:none;stroke-opacity:1"
       transform="matrix(1.3333333,0,0,-1.3333333,44.598667,34.966667)" />
    <path
       id="path24"
       d="m 5.83492,-30.36198 -0.86507,7.31854"
       style="fill:none;stroke:#3c7a4f;stroke-width:1.19553;stroke-linecap:butt;stroke-linejoin:miter;stroke-miterlimit:10;stroke-dasharray:none;stroke-opacity:1"
       transform="matrix(1.3333333,0,0,-1.3333333,44.598667,34.966667)" />
  </g>
</svg>
