<?xml version="1.0" encoding="UTF-8" standalone="no"?>
<!-- Created with Inkscape (http://www.inkscape.org/) -->

<svg
   version="1.1"
   id="svg1"
   width="170.07867"
   height="50.869331"
   viewBox="0 0 170.07867 50.869331"
   xmlns="http://www.w3.org/2000/svg"
   xmlns:svg="http://www.w3.org/2000/svg">
  <defs
     id="defs1" />
  <g
     id="g1">
    <g
       id="g24">
      <path
         d="m 36.00056,-8.78741 c 0,18.78678 -15.22929,34.01606 -34.01609,34.01606 -18.78677,0 -34.01607,-15.22928 -34.01607,-34.01606 0,-18.78681 15.2293,-34.01609 34.01607,-34.01609 18.7868,0 34.01609,15.22928 34.01609,34.01609 z"
         style="fill:none;stroke:#4cae4f;stroke-width:1.99255;stroke-linecap:butt;stroke-linejoin:miter;stroke-miterlimit:10;stroke-dasharray:none;stroke-opacity:1"
         transform="matrix(0.6,0,0,-0.6,142.1934,20.161933)"
         id="path1" />
      <path
         d="M 9.35448,-9.92155 V 0"
         style="fill:none;stroke:#4cae4f;stroke-width:2.98883;stroke-linecap:butt;stroke-linejoin:miter;stroke-miterlimit:10;stroke-dasharray:none;stroke-opacity:1"
         transform="matrix(0.6,0,0,-0.6,142.1934,20.161933)"
         id="path2" />
      <path
         d="M 9.35448,0 C 9.35448,5.1664 5.1664,9.35448 0,9.35448 -5.1664,9.35448 -9.35448,5.1664 -9.35448,0 c 0,-5.1664 4.18808,-9.35448 9.35448,-9.35448 5.1664,0 9.35448,4.18808 9.35448,9.35448 z"
         style="fill:none;stroke:#4cae4f;stroke-width:2.98883;stroke-linecap:butt;stroke-linejoin:miter;stroke-miterlimit:10;stroke-dasharray:none;stroke-opacity:1"
         transform="matrix(0.6,0,0,-0.6,142.1934,20.161933)"
         id="path3" />
      <path
         d="M -15.95717,9.2126 0,18.42523"
         style="fill:none;stroke:#3c7a4f;stroke-width:1.49442;stroke-linecap:butt;stroke-linejoin:miter;stroke-miterlimit:10;stroke-dasharray:none;stroke-opacity:1"
         transform="matrix(0.6,0,0,-0.6,142.1934,20.161933)"
         id="path4" />
      <path
         d="M 0,18.42523 15.95717,9.2126"
         style="fill:none;stroke:#3c7a4f;stroke-width:1.49442;stroke-linecap:butt;stroke-linejoin:miter;stroke-miterlimit:10;stroke-dasharray:none;stroke-opacity:1"
         transform="matrix(0.6,0,0,-0.6,142.1934,20.161933)"
         id="path5" />
      <path
         d="M 15.95717,9.2126 V -9.2126"
         style="fill:none;stroke:#3c7a4f;stroke-width:1.49442;stroke-linecap:butt;stroke-linejoin:miter;stroke-miterlimit:10;stroke-dasharray:none;stroke-opacity:1"
         transform="matrix(0.6,0,0,-0.6,142.1934,20.161933)"
         id="path6" />
      <path
         d="M 15.95717,-9.2126 0,-18.42523"
         style="fill:none;stroke:#3c7a4f;stroke-width:1.49442;stroke-linecap:butt;stroke-linejoin:miter;stroke-miterlimit:10;stroke-dasharray:none;stroke-opacity:1"
         transform="matrix(0.6,0,0,-0.6,142.1934,20.161933)"
         id="path7" />
      <path
         d="M -15.95717,-9.2126 0,-18.42523"
         style="fill:none;stroke:#d9d9d9;stroke-width:1.49442;stroke-linecap:butt;stroke-linejoin:miter;stroke-miterlimit:10;stroke-dasharray:none;stroke-opacity:1"
         transform="matrix(0.6,0,0,-0.6,142.1934,20.161933)"
         id="path8" />
      <path
         d="M -15.95717,-9.2126 V 9.2126"
         style="fill:none;stroke:#d9d9d9;stroke-width:1.49442;stroke-linecap:butt;stroke-linejoin:miter;stroke-miterlimit:10;stroke-dasharray:none;stroke-opacity:1"
         transform="matrix(0.6,0,0,-0.6,142.1934,20.161933)"
         id="path9" />
      <path
         d="m -13.12233,9.2126 c 0,1.56566 -1.2692,2.83485 -2.83484,2.83485 -1.56566,0 -2.83485,-1.26919 -2.83485,-2.83485 0,-1.56564 1.26919,-2.83484 2.83485,-2.83484 1.56564,0 2.83484,1.2692 2.83484,2.83484 z"
         style="fill:#3c7a4f;fill-opacity:1;fill-rule:nonzero;stroke:#3c7a4f;stroke-width:0.3985;stroke-linecap:butt;stroke-linejoin:miter;stroke-miterlimit:10;stroke-dasharray:none;stroke-opacity:1"
         transform="matrix(0.6,0,0,-0.6,142.1934,20.161933)"
         id="path10" />
      <path
         d="m 2.83484,18.42523 c 0,1.56565 -1.2692,2.83486 -2.83484,2.83486 -1.56564,0 -2.83484,-1.26921 -2.83484,-2.83486 0,-1.56566 1.2692,-2.83485 2.83484,-2.83485 1.56564,0 2.83484,1.26919 2.83484,2.83485 z"
         style="fill:#3c7a4f;fill-opacity:1;fill-rule:nonzero;stroke:#3c7a4f;stroke-width:0.3985;stroke-linecap:butt;stroke-linejoin:miter;stroke-miterlimit:10;stroke-dasharray:none;stroke-opacity:1"
         transform="matrix(0.6,0,0,-0.6,142.1934,20.161933)"
         id="path11" />
      <path
         d="m 18.79202,9.2126 c 0,1.56566 -1.26919,2.83485 -2.83485,2.83485 -1.56564,0 -2.83484,-1.26919 -2.83484,-2.83485 0,-1.56564 1.2692,-2.83484 2.83484,-2.83484 1.56566,0 2.83485,1.2692 2.83485,2.83484 z"
         style="fill:#3c7a4f;fill-opacity:1;fill-rule:nonzero;stroke:#3c7a4f;stroke-width:0.3985;stroke-linecap:butt;stroke-linejoin:miter;stroke-miterlimit:10;stroke-dasharray:none;stroke-opacity:1"
         transform="matrix(0.6,0,0,-0.6,142.1934,20.161933)"
         id="path12" />
      <path
         d="m 18.79202,-9.2126 c 0,1.56564 -1.26919,2.83484 -2.83485,2.83484 -1.56564,0 -2.83484,-1.2692 -2.83484,-2.83484 0,-1.56566 1.2692,-2.83485 2.83484,-2.83485 1.56566,0 2.83485,1.26919 2.83485,2.83485 z"
         style="fill:#3c7a4f;fill-opacity:1;fill-rule:nonzero;stroke:#3c7a4f;stroke-width:0.3985;stroke-linecap:butt;stroke-linejoin:miter;stroke-miterlimit:10;stroke-dasharray:none;stroke-opacity:1"
         transform="matrix(0.6,0,0,-0.6,142.1934,20.161933)"
         id="path13" />
      <path
         d="m 2.83484,-18.42523 c 0,1.56566 -1.2692,2.83485 -2.83484,2.83485 -1.56564,0 -2.83484,-1.26919 -2.83484,-2.83485 0,-1.56565 1.2692,-2.83486 2.83484,-2.83486 1.56564,0 2.83484,1.26921 2.83484,2.83486 z"
         style="fill:#3c7a4f;fill-opacity:1;fill-rule:nonzero;stroke:#3c7a4f;stroke-width:0.3985;stroke-linecap:butt;stroke-linejoin:miter;stroke-miterlimit:10;stroke-dasharray:none;stroke-opacity:1"
         transform="matrix(0.6,0,0,-0.6,142.1934,20.161933)"
         id="path14" />
      <path
         d="m -13.12233,-9.2126 c 0,1.56564 -1.2692,2.83484 -2.83484,2.83484 -1.56566,0 -2.83485,-1.2692 -2.83485,-2.83484 0,-1.56566 1.26919,-2.83485 2.83485,-2.83485 1.56564,0 2.83484,1.26919 2.83484,2.83485 z"
         style="fill:#b3b3b3;fill-opacity:1;fill-rule:nonzero;stroke:#b3b3b3;stroke-width:0.3985;stroke-linecap:butt;stroke-linejoin:miter;stroke-miterlimit:10;stroke-dasharray:none;stroke-opacity:1"
         transform="matrix(0.6,0,0,-0.6,142.1934,20.161933)"
         id="path15" />
      <path
         d="m -3.68521,-28.3468 c 0,2.66144 -2.15747,4.8189 -4.81891,4.8189 -2.66144,0 -4.81891,-2.15746 -4.81891,-4.8189 0,-2.66144 2.15747,-4.81891 4.81891,-4.81891 2.66144,0 4.81891,2.15747 4.81891,4.81891 z"
         style="fill:#3c7a4f;fill-opacity:1;fill-rule:nonzero;stroke:#3c7a4f;stroke-width:0.3985;stroke-linecap:butt;stroke-linejoin:miter;stroke-miterlimit:10;stroke-dasharray:none;stroke-opacity:1"
         transform="matrix(0.6,0,0,-0.6,142.1934,20.161933)"
         id="path16" />
      <path
         d="M 22.55986,-25.51193 V 0"
         style="fill:none;stroke:#76a284;stroke-width:2.98883;stroke-linecap:butt;stroke-linejoin:miter;stroke-miterlimit:10;stroke-dasharray:none;stroke-opacity:1"
         transform="matrix(0.6,0,0,-0.6,142.1934,20.161933)"
         id="path17" />
      <path
         d="m 22.55942,-25.51193 c 0,3.91391 -3.17278,7.08668 -7.08669,7.08668 -3.91391,0 -7.08668,-3.17277 -7.08668,-7.08668 0,-3.91393 3.17277,-7.0867 7.08668,-7.0867 3.91391,0 7.08669,3.17277 7.08669,7.0867 z"
         style="fill:none;stroke:#76a284;stroke-width:2.98883;stroke-linecap:butt;stroke-linejoin:miter;stroke-miterlimit:10;stroke-dasharray:none;stroke-opacity:1"
         transform="matrix(0.6,0,0,-0.6,142.1934,20.161933)"
         id="path18" />
      <path
         d="m -2.35342,-22.25882 -1.07529,0.9213"
         style="fill:none;stroke:#3c7a4f;stroke-width:1.19553;stroke-linecap:butt;stroke-linejoin:miter;stroke-miterlimit:10;stroke-dasharray:none;stroke-opacity:1"
         transform="matrix(0.6,0,0,-0.6,142.1934,20.161933)"
         id="path19" />
      <path
         d="m -3.04593,-24.5915 -2.58224,2.21285"
         style="fill:none;stroke:#3c7a4f;stroke-width:1.19553;stroke-linecap:butt;stroke-linejoin:miter;stroke-miterlimit:10;stroke-dasharray:none;stroke-opacity:1"
         transform="matrix(0.6,0,0,-0.6,142.1934,20.161933)"
         id="path20" />
      <path
         d="m -1.6579,-28.67856 -0.26558,2.25093"
         style="fill:none;stroke:#3c7a4f;stroke-width:1.19553;stroke-linecap:butt;stroke-linejoin:miter;stroke-miterlimit:10;stroke-dasharray:none;stroke-opacity:1"
         transform="matrix(0.6,0,0,-0.6,142.1934,20.161933)"
         id="path21" />
      <path
         d="m 0.83954,-29.24042 -0.46541,3.9413"
         style="fill:none;stroke:#3c7a4f;stroke-width:1.19553;stroke-linecap:butt;stroke-linejoin:miter;stroke-miterlimit:10;stroke-dasharray:none;stroke-opacity:1"
         transform="matrix(0.6,0,0,-0.6,142.1934,20.161933)"
         id="path22" />
      <path
         d="m 3.337,-29.80142 -0.66523,5.62991"
         style="fill:none;stroke:#3c7a4f;stroke-width:1.19553;stroke-linecap:butt;stroke-linejoin:miter;stroke-miterlimit:10;stroke-dasharray:none;stroke-opacity:1"
         transform="matrix(0.6,0,0,-0.6,142.1934,20.161933)"
         id="path23" />
      <path
         d="m 5.83492,-30.36198 -0.86507,7.31854"
         style="fill:none;stroke:#3c7a4f;stroke-width:1.19553;stroke-linecap:butt;stroke-linejoin:miter;stroke-miterlimit:10;stroke-dasharray:none;stroke-opacity:1"
         transform="matrix(0.6,0,0,-0.6,142.1934,20.161933)"
         id="path24" />
    </g>
    <path
       id="path25"
       d="m 10.26482,-7.0416016 c 0,-1.875 -1.4179684,-3.8671874 -4.7578122,-3.8671874 -1.0429687,0 -3.4453125,0 -3.4453125,1.7109374 0,0.6679688 0.46875,1.0429688 1.0078125,1.0429688 0.1523438,0 0.9726563,-0.046875 0.9960938,-1.0898438 0,-0.1171875 0.023437,-0.1523437 0.5390625,-0.1992187 0.3046875,-0.023437 0.6210937,-0.023437 0.9257812,-0.023437 0.5625,0 1.40625,0 2.2265625,0.6210937 0.890625,0.6914063 0.890625,1.3828125 0.890625,2.109375 -1.4648437,0.046875 -2.8945312,0.140625 -4.4296875,0.6445313 -1.2421875,0.421875 -2.8359375,1.3125 -2.8359375,3 0,1.7578125 1.5703125,3.24609374 3.8671875,3.24609374 0.796875,0 2.3320313,-0.12890625 3.6210938,-1.01953125 0.4921875,0.8203125 1.7343749,0.8671875 2.6835939,0.8671875 0.585937,0 1.183594,0 1.183594,-0.71484375 0,-0.72656254 -0.644532,-0.72656254 -0.984375,-0.72656254 -0.644532,0 -1.148438,-0.046875 -1.488282,-0.1992187 z m -1.6171872,3.7734375 c 0,0.5625 0,1.0898438 -1.0195312,1.5585938 -0.8671875,0.421875 -2.0273438,0.421875 -2.0976563,0.421875 -1.4648437,0 -2.53125,-0.796875 -2.53125,-1.8046875 0,-1.4648438 2.6484375,-2.3085938 5.6484375,-2.3085938 z M 20.243336,-14.049414 c 0,-0.621094 -0.503906,-1.113281 -1.113281,-1.113281 -0.621094,0 -1.125,0.492187 -1.125,1.113281 0,0.621094 0.503906,1.113281 1.125,1.113281 0.609375,0 1.113281,-0.492187 1.113281,-1.113281 z m -4.265625,3.363281 c -0.351563,0 -0.996094,0 -0.996094,0.7265627 0,0.7148437 0.644531,0.7148437 0.996094,0.7148437 h 2.648437 v 7.8046875 H 15.80193 c -0.339844,0 -1.019532,0 -1.019532,0.72656254 0,0.71484375 0.679688,0.71484375 1.019532,0.71484375 h 6.890625 c 0.351562,0 0.996093,0 0.996093,-0.71484375 0,-0.72656254 -0.644531,-0.72656254 -0.996093,-0.72656254 h -2.449219 v -8.2265625 c 0,-0.7617184 -0.152344,-1.0195314 -0.996094,-1.0195314 z m 20.759766,3.1757814 c 0,-0.5390625 0,-3.3164064 -2.179688,-3.3164064 -0.867187,0 -1.710937,0.398438 -2.378906,1.3125002 -0.152344,-0.375 -0.691406,-1.3125002 -1.886719,-1.3125002 -1.113281,0 -1.886719,0.714844 -2.074219,0.9375002 -0.03516,-0.7968752 -0.550781,-0.7968752 -0.996093,-0.7968752 h -0.75 c -0.339844,0 -0.984375,0 -0.984375,0.7265627 0,0.7148437 0.574218,0.7148437 1.335937,0.7148437 v 7.8046875 c -0.796875,0 -1.335937,0 -1.335937,0.72656254 0,0.71484375 0.644531,0.71484375 0.984375,0.71484375 h 2.085937 c 0.351563,0 0.996094,0 0.996094,-0.71484375 0,-0.72656254 -0.574219,-0.72656254 -1.335938,-0.72656254 v -4.5585937 c 0,-2.0742188 0.890625,-3.3984375 1.980469,-3.3984375 0.691406,0 0.890625,0.8671875 0.890625,2.0390625 v 5.9179687 c -0.421875,0 -1.089844,0 -1.089844,0.72656254 0,0.71484375 0.667969,0.71484375 1.019532,0.71484375 h 1.804687 c 0.351563,0 0.996094,0 0.996094,-0.71484375 0,-0.72656254 -0.574219,-0.72656254 -1.347656,-0.72656254 v -4.5585937 c 0,-2.0742188 0.890625,-3.3984375 1.992187,-3.3984375 0.691406,0 0.890625,0.8671875 0.890625,2.0390625 v 5.9179687 c -0.421875,0 -1.089844,0 -1.089844,0.72656254 0,0.71484375 0.667969,0.71484375 1.007813,0.71484375 h 1.816406 c 0.339844,0 0.984375,0 0.984375,-0.71484375 0,-0.72656254 -0.5625,-0.72656254 -1.335937,-0.72656254 z m 17.563476,-6.6210934 c 0,-0.761719 -0.152344,-1.007813 -0.996094,-1.007813 h -1.628906 c -0.351562,0 -0.996094,0 -0.996094,0.714844 0,0.714844 0.644532,0.714844 0.996094,0.714844 h 1.019531 v 4.1132809 c -0.398437,-0.3867187 -1.417968,-1.2304689 -2.929687,-1.2304689 -2.625,0 -4.910156,2.3789064 -4.910156,5.4960939 0,3.046875 2.132812,5.48437504 4.6875,5.48437504 1.605468,0 2.671875,-0.97265625 3.152343,-1.51171874 0,1.04296874 0,1.35937499 0.984375,1.35937499 h 1.640625 c 0.339844,0 0.984375,0 0.984375,-0.71484375 0,-0.72656254 -0.644531,-0.72656254 -0.984375,-0.72656254 h -1.019531 z m -1.605469,9.4218747 c 0,1.3945312 -1.148437,3.421875 -3,3.421875 -1.792968,0 -3.222656,-1.8046875 -3.222656,-4.0429688 0,-2.3789062 1.6875,-4.0664062 3.445313,-4.0664062 1.605468,0 2.777343,1.4648437 2.777343,2.7539062 z m 14.267578,-2.3320313 c 0,-1.875 -1.417968,-3.8671874 -4.757812,-3.8671874 -1.042969,0 -3.445313,0 -3.445313,1.7109374 0,0.6679688 0.46875,1.0429688 1.007813,1.0429688 0.152344,0 0.972656,-0.046875 0.996094,-1.0898438 0,-0.1171875 0.02344,-0.1523437 0.539062,-0.1992187 0.304688,-0.023437 0.621094,-0.023437 0.925781,-0.023437 0.5625,0 1.40625,0 2.226563,0.6210937 0.890625,0.6914063 0.890625,1.3828125 0.890625,2.109375 -1.464844,0.046875 -2.894531,0.140625 -4.429688,0.6445313 -1.242187,0.421875 -2.835937,1.3125 -2.835937,3 0,1.7578125 1.570312,3.24609374 3.867187,3.24609374 0.796875,0 2.332032,-0.12890625 3.621094,-1.01953125 0.492188,0.8203125 1.734375,0.8671875 2.683594,0.8671875 0.585937,0 1.183594,0 1.183594,-0.71484375 0,-0.72656254 -0.644532,-0.72656254 -0.984375,-0.72656254 -0.644532,0 -1.148438,-0.046875 -1.488282,-0.1992187 z m -1.617187,3.7734375 c 0,0.5625 0,1.0898438 -1.019531,1.5585938 -0.867188,0.421875 -2.027344,0.421875 -2.097657,0.421875 -1.464843,0 -2.53125,-0.796875 -2.53125,-1.8046875 0,-1.4648438 2.648438,-2.3085938 5.648438,-2.3085938 z m 9.462891,-5.9765625 h 4.007812 c 0.351563,0 0.996094,0 0.996094,-0.7148437 0,-0.7265627 -0.644531,-0.7265627 -0.996094,-0.7265627 h -4.007812 v -2.027344 c 0,-0.445312 0,-1.019531 -0.796875,-1.019531 -0.820313,0 -0.820313,0.574219 -0.820313,1.019531 v 2.027344 h -2.097656 c -0.351563,0 -1.019531,0 -1.019531,0.7265627 0,0.7148437 0.644531,0.7148437 0.984375,0.7148437 h 2.132812 v 6.2460938 c 0,2.30859374 1.59375,3.15234374 3.375,3.15234374 1.335938,0 3.796875,-0.66796875 3.796875,-3.19921874 0,-0.4921875 0,-1.0429688 -0.820312,-1.0429688 -0.796875,0 -0.796875,0.5507813 -0.796875,1.0664063 -0.02344,1.4882812 -1.441407,1.734375 -2.003907,1.734375 -1.933593,0 -1.933593,-1.2421875 -1.933593,-1.828125 z m 0,0"
       style="fill:#3c7a4f;fill-opacity:1;fill-rule:nonzero;stroke:none"
       aria-label="aimdat"
       transform="matrix(1.3333333,0,0,1.3333333,5.4346667,35.533333)" />
    <path
       id="path26"
       d="m 4.9927422,-3.1513203 c 0.1992187,-0.1757813 1.6523437,-1.40625 1.6523437,-3 0,-1.640625 -1.3476562,-2.7890625 -3.140625,-2.7890625 -1.6640625,0 -2.77734371,1.2539062 -2.77734371,2.4609375 0,0.5976562 0.50390621,0.6445312 0.59765621,0.6445312 0.2578125,0 0.5742188,-0.1992187 0.5742188,-0.5859375 0,-0.28125 -0.1054688,-0.3632812 -0.1757813,-0.421875 0.1992188,-0.7617187 0.8554688,-1.265625 1.6875,-1.265625 1.21875,0 2.296875,0.703125 2.296875,1.9570313 0,1.1132812 -0.84375,1.9804687 -1.6171875,2.6484375 l -3.15234371,2.74218749 c -0.1640625,0.12890625 -0.2109375,0.17578125 -0.2109375,0.3515625 0,0.41015625 0.38671871,0.41015625 0.59765621,0.41015625 h 5.0039063 c 0.3164062,-0.08203125 0.3164062,-0.375 0.3164062,-0.5859375 v -0.3046875 c 0,-0.25781254 0,-0.58593754 -0.4570312,-0.58593754 -0.4804688,0 -0.4804688,0.3046875 -0.4804688,0.64453129 H 2.2505547 Z m 0,0"
       style="fill:#3c7a4f;fill-opacity:1;fill-rule:nonzero;stroke:none"
       aria-label="2"
       transform="matrix(1.3333333,0,0,1.3333333,55.690667,21.830667)" />
  </g>
</svg>
