<?xml version="1.0" encoding="UTF-8" standalone="no"?>
<!DOCTYPE svg PUBLIC "-//W3C//DTD SVG 1.1//EN"
 "http://www.w3.org/Graphics/SVG/1.1/DTD/svg11.dtd">
<!-- Generated by graphviz version 2.43.0 (0)
 -->
<!-- Title: %3 Pages: 1 -->
<svg width="432pt" height="176pt"
 viewBox="0.00 0.00 432.00 176.34" xmlns="http://www.w3.org/2000/svg" xmlns:xlink="http://www.w3.org/1999/xlink">
<g id="graph0" class="graph" transform="scale(3.06 3.06) rotate(0) translate(4 535.22)">
<title>%3</title>
<polygon fill="white" stroke="transparent" points="-4,4 -4,-535.22 1317,-535.22 1317,4 -4,4"/>
<!-- N1 -->
<g id="node1" class="node">
<title>N1</title>
<ellipse fill="#8cd499" stroke="black" stroke-width="0" cx="970" cy="-504.35" rx="60.62" ry="26.74"/>
<text text-anchor="middle" x="970" y="-508.15" font-family="Times,serif" font-size="14.00">Float (1)</text>
<text text-anchor="middle" x="970" y="-493.15" font-family="Times,serif" font-size="14.00">value: 4.0</text>
</g>
<!-- N4 -->
<g id="node4" class="node">
<title>N4</title>
<polygon fill="#e38851" stroke="black" stroke-width="0" points="331.5,-411.48 198.5,-411.48 198.5,-358.48 331.5,-358.48 331.5,-411.48"/>
<text text-anchor="middle" x="265" y="-396.28" font-family="Times,serif" font-size="14.00">add_multiply (4)</text>
<text text-anchor="middle" x="265" y="-381.28" font-family="Times,serif" font-size="14.00">State: finished</text>
<text text-anchor="middle" x="265" y="-366.28" font-family="Times,serif" font-size="14.00">Exit Code: 0</text>
</g>
<!-- N1&#45;&gt;N4 -->
<g id="edge2" class="edge">
<title>N1&#45;&gt;N4</title>
<path fill="none" stroke="#000000" stroke-dasharray="5,2" d="M910.35,-498.49C846.29,-492.32 749.56,-479.93 719,-459.48 705.88,-450.7 713.43,-437.77 700,-429.48 692.46,-424.83 464.43,-403.81 341.62,-392.79"/>
<polygon fill="#000000" stroke="#000000" points="341.79,-389.29 331.52,-391.88 341.16,-396.26 341.79,-389.29"/>
<text text-anchor="middle" x="769.5" y="-448.28" font-family="Times,serif" font-size="14.00">INPUT_WORK</text>
<text text-anchor="middle" x="769.5" y="-433.28" font-family="Times,serif" font-size="14.00">x</text>
</g>
<!-- N10 -->
<g id="node9" class="node">
<title>N10</title>
<polygon fill="#e38851" stroke="black" stroke-width="0" points="1168,-411.48 1026,-411.48 1026,-358.48 1168,-358.48 1168,-411.48"/>
<text text-anchor="middle" x="1097" y="-396.28" font-family="Times,serif" font-size="14.00">add_multiply (10)</text>
<text text-anchor="middle" x="1097" y="-381.28" font-family="Times,serif" font-size="14.00">State: finished</text>
<text text-anchor="middle" x="1097" y="-366.28" font-family="Times,serif" font-size="14.00">Exit Code: 0</text>
</g>
<!-- N1&#45;&gt;N10 -->
<g id="edge8" class="edge">
<title>N1&#45;&gt;N10</title>
<path fill="none" stroke="#000000" stroke-dasharray="5,2" d="M1022.1,-490.4C1039.93,-483.72 1058.72,-473.85 1072,-459.48 1081.62,-449.07 1087.56,-434.81 1091.21,-421.61"/>
<polygon fill="#000000" stroke="#000000" points="1094.64,-422.36 1093.59,-411.81 1087.83,-420.71 1094.64,-422.36"/>
<text text-anchor="middle" x="1138.5" y="-448.28" font-family="Times,serif" font-size="14.00">INPUT_WORK</text>
<text text-anchor="middle" x="1138.5" y="-433.28" font-family="Times,serif" font-size="14.00">x</text>
</g>
<!-- N16 -->
<g id="node14" class="node">
<title>N16</title>
<polygon fill="#e38851" stroke="black" stroke-width="0" points="706,-411.48 564,-411.48 564,-358.48 706,-358.48 706,-411.48"/>
<text text-anchor="middle" x="635" y="-396.28" font-family="Times,serif" font-size="14.00">add_multiply (16)</text>
<text text-anchor="middle" x="635" y="-381.28" font-family="Times,serif" font-size="14.00">State: finished</text>
<text text-anchor="middle" x="635" y="-366.28" font-family="Times,serif" font-size="14.00">Exit Code: 0</text>
</g>
<!-- N1&#45;&gt;N16 -->
<g id="edge14" class="edge">
<title>N1&#45;&gt;N16</title>
<path fill="none" stroke="#000000" stroke-dasharray="5,2" d="M969.09,-477.33C967.07,-461.15 961.7,-441.25 948,-429.48 914.23,-400.47 797.46,-390.76 716.52,-387.54"/>
<polygon fill="#000000" stroke="#000000" points="716.46,-384.03 706.33,-387.16 716.2,-391.03 716.46,-384.03"/>
<text text-anchor="middle" x="1015.5" y="-448.28" font-family="Times,serif" font-size="14.00">INPUT_WORK</text>
<text text-anchor="middle" x="1015.5" y="-433.28" font-family="Times,serif" font-size="14.00">z</text>
</g>
<!-- N2 -->
<g id="node2" class="node">
<title>N2</title>
<ellipse fill="#8cd499" stroke="black" stroke-width="0" cx="451" cy="-504.35" rx="51.74" ry="26.74"/>
<text text-anchor="middle" x="451" y="-508.15" font-family="Times,serif" font-size="14.00">Int (2)</text>
<text text-anchor="middle" x="451" y="-493.15" font-family="Times,serif" font-size="14.00">value: 5</text>
</g>
<!-- N2&#45;&gt;N4 -->
<g id="edge1" class="edge">
<title>N2&#45;&gt;N4</title>
<path fill="none" stroke="#000000" stroke-dasharray="5,2" d="M403.39,-493.57C378.66,-486.86 348.91,-476.08 326,-459.48 312.4,-449.62 313.64,-442.48 303,-429.48 300.28,-426.16 297.42,-422.74 294.52,-419.34"/>
<polygon fill="#000000" stroke="#000000" points="296.96,-416.81 287.78,-411.51 291.65,-421.37 296.96,-416.81"/>
<text text-anchor="middle" x="376.5" y="-448.28" font-family="Times,serif" font-size="14.00">INPUT_WORK</text>
<text text-anchor="middle" x="376.5" y="-433.28" font-family="Times,serif" font-size="14.00">y</text>
</g>
<!-- N2&#45;&gt;N10 -->
<g id="edge9" class="edge">
<title>N2&#45;&gt;N10</title>
<path fill="none" stroke="#000000" stroke-dasharray="5,2" d="M490.21,-486.77C500.4,-483.1 511.47,-479.66 522,-477.48 587.83,-463.83 766.09,-493.63 824,-459.48 837.59,-451.46 829.87,-438.23 843,-429.48 870.78,-410.96 952.52,-399.25 1015.85,-392.7"/>
<polygon fill="#000000" stroke="#000000" points="1016.24,-396.18 1025.84,-391.7 1015.54,-389.22 1016.24,-396.18"/>
<text text-anchor="middle" x="893.5" y="-448.28" font-family="Times,serif" font-size="14.00">INPUT_WORK</text>
<text text-anchor="middle" x="893.5" y="-433.28" font-family="Times,serif" font-size="14.00">y</text>
</g>
<!-- N2&#45;&gt;N16 -->
<g id="edge15" class="edge">
<title>N2&#45;&gt;N16</title>
<path fill="none" stroke="#000000" stroke-dasharray="5,2" d="M458.53,-477.42C464.41,-461.48 474.13,-441.82 489,-429.48 507.43,-414.19 531.1,-404.27 553.98,-397.84"/>
<polygon fill="#000000" stroke="#000000" points="554.93,-401.21 563.72,-395.29 553.16,-394.43 554.93,-401.21"/>
<text text-anchor="middle" x="539.5" y="-448.28" font-family="Times,serif" font-size="14.00">INPUT_WORK</text>
<text text-anchor="middle" x="539.5" y="-433.28" font-family="Times,serif" font-size="14.00">y</text>
</g>
<!-- N21 -->
<g id="node18" class="node">
<title>N21</title>
<polygon fill="#e38851" stroke="black" stroke-width="0" points="889,-172.74 747,-172.74 747,-119.74 889,-119.74 889,-172.74"/>
<text text-anchor="middle" x="818" y="-157.54" font-family="Times,serif" font-size="14.00">add_multiply (21)</text>
<text text-anchor="middle" x="818" y="-142.54" font-family="Times,serif" font-size="14.00">State: finished</text>
<text text-anchor="middle" x="818" y="-127.54" font-family="Times,serif" font-size="14.00">Exit Code: 0</text>
</g>
<!-- N2&#45;&gt;N21 -->
<g id="edge20" class="edge">
<title>N2&#45;&gt;N21</title>
<path fill="none" stroke="#000000" stroke-dasharray="5,2" d="M442.4,-477.46C426.4,-423.76 399.36,-300.19 466,-238.74 505.15,-202.64 645.53,-174.39 736.74,-159.32"/>
<polygon fill="#000000" stroke="#000000" points="737.47,-162.74 746.78,-157.68 736.35,-155.83 737.47,-162.74"/>
<text text-anchor="middle" x="478.5" y="-329.28" font-family="Times,serif" font-size="14.00">INPUT_WORK</text>
<text text-anchor="middle" x="478.5" y="-314.28" font-family="Times,serif" font-size="14.00">y</text>
</g>
<!-- N3 -->
<g id="node3" class="node">
<title>N3</title>
<ellipse fill="#8cd499" stroke="black" stroke-width="0" cx="201" cy="-504.35" rx="60.62" ry="26.74"/>
<text text-anchor="middle" x="201" y="-508.15" font-family="Times,serif" font-size="14.00">Float (3)</text>
<text text-anchor="middle" x="201" y="-493.15" font-family="Times,serif" font-size="14.00">value: 2.0</text>
</g>
<!-- N3&#45;&gt;N4 -->
<g id="edge3" class="edge">
<title>N3&#45;&gt;N4</title>
<path fill="none" stroke="#000000" stroke-dasharray="5,2" d="M195.71,-477.28C194.02,-462.43 194.27,-443.97 202,-429.48 204.04,-425.65 206.58,-422.1 209.47,-418.8"/>
<polygon fill="#000000" stroke="#000000" points="212.11,-421.11 216.75,-411.59 207.18,-416.14 212.11,-421.11"/>
<text text-anchor="middle" x="252.5" y="-448.28" font-family="Times,serif" font-size="14.00">INPUT_WORK</text>
<text text-anchor="middle" x="252.5" y="-433.28" font-family="Times,serif" font-size="14.00">z</text>
</g>
<!-- N5 -->
<g id="node5" class="node">
<title>N5</title>
<polygon fill="#de707f" fill-opacity="0.466667" stroke="black" stroke-width="0" points="120,-292.11 0,-292.11 0,-239.11 120,-239.11 120,-292.11"/>
<text text-anchor="middle" x="60" y="-276.91" font-family="Times,serif" font-size="14.00">add (5)</text>
<text text-anchor="middle" x="60" y="-261.91" font-family="Times,serif" font-size="14.00">State: finished</text>
<text text-anchor="middle" x="60" y="-246.91" font-family="Times,serif" font-size="14.00">Exit Code: 0</text>
</g>
<!-- N4&#45;&gt;N5 -->
<g id="edge5" class="edge">
<title>N4&#45;&gt;N5</title>
<path fill="none" stroke="#000000" stroke-dasharray="1,5" d="M198.25,-366.71C178.41,-360.08 157.14,-351.41 139,-340.48 120.95,-329.61 103.54,-314.07 89.69,-300.05"/>
<polygon fill="#000000" stroke="#000000" points="91.83,-297.23 82.37,-292.46 86.79,-302.09 91.83,-297.23"/>
<text text-anchor="middle" x="181.5" y="-329.28" font-family="Times,serif" font-size="14.00">CALL_CALC</text>
<text text-anchor="middle" x="181.5" y="-314.28" font-family="Times,serif" font-size="14.00">CALL</text>
</g>
<!-- N8 -->
<g id="node6" class="node">
<title>N8</title>
<ellipse fill="#8cd499" stroke="black" stroke-width="0" cx="205" cy="-265.61" rx="67.35" ry="26.74"/>
<text text-anchor="middle" x="205" y="-269.41" font-family="Times,serif" font-size="14.00">Float (8)</text>
<text text-anchor="middle" x="205" y="-254.41" font-family="Times,serif" font-size="14.00">value: 18.0</text>
</g>
<!-- N4&#45;&gt;N8 -->
<g id="edge6" class="edge">
<title>N4&#45;&gt;N8</title>
<path fill="none" stroke="#000000" stroke-dasharray="5,2" d="M251.83,-358.22C243.31,-341.56 232.12,-319.66 222.81,-301.45"/>
<polygon fill="#000000" stroke="#000000" points="225.8,-299.62 218.14,-292.31 219.57,-302.8 225.8,-299.62"/>
<text text-anchor="middle" x="275.5" y="-329.28" font-family="Times,serif" font-size="14.00">RETURN</text>
<text text-anchor="middle" x="275.5" y="-314.28" font-family="Times,serif" font-size="14.00">result</text>
</g>
<!-- N7 -->
<g id="node7" class="node">
<title>N7</title>
<polygon fill="#de707f" fill-opacity="0.466667" stroke="black" stroke-width="0" points="410,-292.11 290,-292.11 290,-239.11 410,-239.11 410,-292.11"/>
<text text-anchor="middle" x="350" y="-276.91" font-family="Times,serif" font-size="14.00">multiply (7)</text>
<text text-anchor="middle" x="350" y="-261.91" font-family="Times,serif" font-size="14.00">State: finished</text>
<text text-anchor="middle" x="350" y="-246.91" font-family="Times,serif" font-size="14.00">Exit Code: 0</text>
</g>
<!-- N4&#45;&gt;N7 -->
<g id="edge4" class="edge">
<title>N4&#45;&gt;N7</title>
<path fill="none" stroke="#000000" stroke-dasharray="1,5" d="M295.19,-358.16C300.8,-352.64 306.35,-346.61 311,-340.48 320.11,-328.49 328.24,-314.08 334.69,-301.18"/>
<polygon fill="#000000" stroke="#000000" points="337.87,-302.64 339.08,-292.11 331.57,-299.59 337.87,-302.64"/>
<text text-anchor="middle" x="372.5" y="-329.28" font-family="Times,serif" font-size="14.00">CALL_CALC</text>
<text text-anchor="middle" x="372.5" y="-314.28" font-family="Times,serif" font-size="14.00">CALL</text>
</g>
<!-- N9 -->
<g id="node8" class="node">
<title>N9</title>
<ellipse fill="#8cd499" stroke="black" stroke-width="0" cx="1218" cy="-504.35" rx="60.62" ry="26.74"/>
<text text-anchor="middle" x="1218" y="-508.15" font-family="Times,serif" font-size="14.00">Float (9)</text>
<text text-anchor="middle" x="1218" y="-493.15" font-family="Times,serif" font-size="14.00">value: 4.0</text>
</g>
<!-- N9&#45;&gt;N10 -->
<g id="edge7" class="edge">
<title>N9&#45;&gt;N10</title>
<path fill="none" stroke="#000000" stroke-dasharray="5,2" d="M1215.74,-477.47C1213.17,-461.95 1207.69,-442.72 1196,-429.48 1190.46,-423.21 1183.86,-417.8 1176.72,-413.15"/>
<polygon fill="#000000" stroke="#000000" points="1178.5,-410.14 1168.12,-408.03 1174.92,-416.15 1178.5,-410.14"/>
<text text-anchor="middle" x="1261.5" y="-448.28" font-family="Times,serif" font-size="14.00">INPUT_WORK</text>
<text text-anchor="middle" x="1261.5" y="-433.28" font-family="Times,serif" font-size="14.00">z</text>
</g>
<!-- N11 -->
<g id="node10" class="node">
<title>N11</title>
<polygon fill="#de707f" fill-opacity="0.466667" stroke="black" stroke-width="0" points="1023,-292.11 903,-292.11 903,-239.11 1023,-239.11 1023,-292.11"/>
<text text-anchor="middle" x="963" y="-276.91" font-family="Times,serif" font-size="14.00">add (11)</text>
<text text-anchor="middle" x="963" y="-261.91" font-family="Times,serif" font-size="14.00">State: finished</text>
<text text-anchor="middle" x="963" y="-246.91" font-family="Times,serif" font-size="14.00">Exit Code: 0</text>
</g>
<!-- N10&#45;&gt;N11 -->
<g id="edge12" class="edge">
<title>N10&#45;&gt;N11</title>
<path fill="none" stroke="#000000" stroke-dasharray="1,5" d="M1037.31,-358.44C1028.32,-353.21 1019.54,-347.22 1012,-340.48 999.69,-329.48 989.09,-314.74 980.94,-301.31"/>
<polygon fill="#000000" stroke="#000000" points="983.74,-299.17 975.69,-292.29 977.69,-302.69 983.74,-299.17"/>
<text text-anchor="middle" x="1054.5" y="-329.28" font-family="Times,serif" font-size="14.00">CALL_CALC</text>
<text text-anchor="middle" x="1054.5" y="-314.28" font-family="Times,serif" font-size="14.00">CALL</text>
</g>
<!-- N14 -->
<g id="node11" class="node">
<title>N14</title>
<ellipse fill="#8cd499" stroke="black" stroke-width="0" cx="1108" cy="-265.61" rx="67.35" ry="26.74"/>
<text text-anchor="middle" x="1108" y="-269.41" font-family="Times,serif" font-size="14.00">Float (14)</text>
<text text-anchor="middle" x="1108" y="-254.41" font-family="Times,serif" font-size="14.00">value: 36.0</text>
</g>
<!-- N10&#45;&gt;N14 -->
<g id="edge11" class="edge">
<title>N10&#45;&gt;N14</title>
<path fill="none" stroke="#000000" stroke-dasharray="5,2" d="M1099.41,-358.22C1100.94,-341.98 1102.93,-320.75 1104.61,-302.83"/>
<polygon fill="#000000" stroke="#000000" points="1108.11,-303 1105.55,-292.71 1101.14,-302.34 1108.11,-303"/>
<text text-anchor="middle" x="1135.5" y="-329.28" font-family="Times,serif" font-size="14.00">RETURN</text>
<text text-anchor="middle" x="1135.5" y="-314.28" font-family="Times,serif" font-size="14.00">result</text>
</g>
<!-- N13 -->
<g id="node12" class="node">
<title>N13</title>
<polygon fill="#de707f" fill-opacity="0.466667" stroke="black" stroke-width="0" points="1313,-292.11 1193,-292.11 1193,-239.11 1313,-239.11 1313,-292.11"/>
<text text-anchor="middle" x="1253" y="-276.91" font-family="Times,serif" font-size="14.00">multiply (13)</text>
<text text-anchor="middle" x="1253" y="-261.91" font-family="Times,serif" font-size="14.00">State: finished</text>
<text text-anchor="middle" x="1253" y="-246.91" font-family="Times,serif" font-size="14.00">Exit Code: 0</text>
</g>
<!-- N10&#45;&gt;N13 -->
<g id="edge10" class="edge">
<title>N10&#45;&gt;N13</title>
<path fill="none" stroke="#000000" stroke-dasharray="1,5" d="M1144.78,-358.32C1154.04,-352.78 1163.5,-346.71 1172,-340.48 1188.71,-328.23 1205.85,-313.05 1220.04,-299.64"/>
<polygon fill="#000000" stroke="#000000" points="1222.8,-301.84 1227.6,-292.4 1217.95,-296.79 1222.8,-301.84"/>
<text text-anchor="middle" x="1248.5" y="-329.28" font-family="Times,serif" font-size="14.00">CALL_CALC</text>
<text text-anchor="middle" x="1248.5" y="-314.28" font-family="Times,serif" font-size="14.00">CALL</text>
</g>
<!-- N14&#45;&gt;N21 -->
<g id="edge21" class="edge">
<title>N14&#45;&gt;N21</title>
<path fill="none" stroke="#000000" stroke-dasharray="5,2" d="M1061.73,-245.88C1015.64,-227.23 944.22,-198.32 890.58,-176.61"/>
<polygon fill="#000000" stroke="#000000" points="891.7,-173.29 881.12,-172.79 889.08,-179.78 891.7,-173.29"/>
<text text-anchor="middle" x="1047.5" y="-209.54" font-family="Times,serif" font-size="14.00">INPUT_WORK</text>
<text text-anchor="middle" x="1047.5" y="-194.54" font-family="Times,serif" font-size="14.00">x</text>
</g>
<!-- N15 -->
<g id="node13" class="node">
<title>N15</title>
<ellipse fill="#8cd499" stroke="black" stroke-width="0" cx="598" cy="-504.35" rx="67.35" ry="26.74"/>
<text text-anchor="middle" x="598" y="-508.15" font-family="Times,serif" font-size="14.00">Float (15)</text>
<text text-anchor="middle" x="598" y="-493.15" font-family="Times,serif" font-size="14.00">value: 10.0</text>
</g>
<!-- N15&#45;&gt;N16 -->
<g id="edge13" class="edge">
<title>N15&#45;&gt;N16</title>
<path fill="none" stroke="#000000" stroke-dasharray="5,2" d="M594.2,-477.28C593.09,-462.78 593.42,-444.65 599,-429.48 600.15,-426.35 601.63,-423.29 603.33,-420.32"/>
<polygon fill="#000000" stroke="#000000" points="606.39,-422.05 608.99,-411.78 600.55,-418.18 606.39,-422.05"/>
<text text-anchor="middle" x="649.5" y="-448.28" font-family="Times,serif" font-size="14.00">INPUT_WORK</text>
<text text-anchor="middle" x="649.5" y="-433.28" font-family="Times,serif" font-size="14.00">x</text>
</g>
<!-- N17 -->
<g id="node15" class="node">
<title>N17</title>
<polygon fill="#de707f" fill-opacity="0.466667" stroke="black" stroke-width="0" points="595,-292.11 475,-292.11 475,-239.11 595,-239.11 595,-292.11"/>
<text text-anchor="middle" x="535" y="-276.91" font-family="Times,serif" font-size="14.00">add (17)</text>
<text text-anchor="middle" x="535" y="-261.91" font-family="Times,serif" font-size="14.00">State: finished</text>
<text text-anchor="middle" x="535" y="-246.91" font-family="Times,serif" font-size="14.00">Exit Code: 0</text>
</g>
<!-- N16&#45;&gt;N17 -->
<g id="edge17" class="edge">
<title>N16&#45;&gt;N17</title>
<path fill="none" stroke="#000000" stroke-dasharray="1,5" d="M581.71,-358.25C574.42,-353.11 567.55,-347.18 562,-340.48 552.91,-329.5 546.74,-315.2 542.62,-302.1"/>
<polygon fill="#000000" stroke="#000000" points="545.97,-301.06 539.86,-292.4 539.23,-302.97 545.97,-301.06"/>
<text text-anchor="middle" x="604.5" y="-329.28" font-family="Times,serif" font-size="14.00">CALL_CALC</text>
<text text-anchor="middle" x="604.5" y="-314.28" font-family="Times,serif" font-size="14.00">CALL</text>
</g>
<!-- N20 -->
<g id="node16" class="node">
<title>N20</title>
<ellipse fill="#8cd499" stroke="black" stroke-width="0" cx="818" cy="-265.61" rx="67.35" ry="26.74"/>
<text text-anchor="middle" x="818" y="-269.41" font-family="Times,serif" font-size="14.00">Float (20)</text>
<text text-anchor="middle" x="818" y="-254.41" font-family="Times,serif" font-size="14.00">value: 60.0</text>
</g>
<!-- N16&#45;&gt;N20 -->
<g id="edge16" class="edge">
<title>N16&#45;&gt;N20</title>
<path fill="none" stroke="#000000" stroke-dasharray="5,2" d="M706.21,-362.55C720.98,-356.55 735.99,-349.23 749,-340.48 765.43,-329.43 780.79,-313.77 792.82,-299.7"/>
<polygon fill="#000000" stroke="#000000" points="795.81,-301.59 799.5,-291.66 790.42,-297.11 795.81,-301.59"/>
<text text-anchor="middle" x="814.5" y="-329.28" font-family="Times,serif" font-size="14.00">RETURN</text>
<text text-anchor="middle" x="814.5" y="-314.28" font-family="Times,serif" font-size="14.00">result</text>
</g>
<!-- N19 -->
<g id="node17" class="node">
<title>N19</title>
<polygon fill="#de707f" fill-opacity="0.466667" stroke="black" stroke-width="0" points="733,-292.11 613,-292.11 613,-239.11 733,-239.11 733,-292.11"/>
<text text-anchor="middle" x="673" y="-276.91" font-family="Times,serif" font-size="14.00">multiply (19)</text>
<text text-anchor="middle" x="673" y="-261.91" font-family="Times,serif" font-size="14.00">State: finished</text>
<text text-anchor="middle" x="673" y="-246.91" font-family="Times,serif" font-size="14.00">Exit Code: 0</text>
</g>
<!-- N16&#45;&gt;N19 -->
<g id="edge18" class="edge">
<title>N16&#45;&gt;N19</title>
<path fill="none" stroke="#000000" stroke-dasharray="1,5" d="M644.75,-358.31C646.88,-352.47 649.07,-346.28 651,-340.48 655.12,-328.08 659.3,-314.39 662.89,-302.2"/>
<polygon fill="#000000" stroke="#000000" points="666.32,-302.95 665.76,-292.37 659.6,-300.99 666.32,-302.95"/>
<text text-anchor="middle" x="702.5" y="-329.28" font-family="Times,serif" font-size="14.00">CALL_CALC</text>
<text text-anchor="middle" x="702.5" y="-314.28" font-family="Times,serif" font-size="14.00">CALL</text>
</g>
<!-- N20&#45;&gt;N21 -->
<g id="edge19" class="edge">
<title>N20&#45;&gt;N21</title>
<path fill="none" stroke="#000000" stroke-dasharray="5,2" d="M818,-238.56C818,-222.19 818,-200.85 818,-182.91"/>
<polygon fill="#000000" stroke="#000000" points="821.5,-182.81 818,-172.81 814.5,-182.81 821.5,-182.81"/>
<text text-anchor="middle" x="868.5" y="-209.54" font-family="Times,serif" font-size="14.00">INPUT_WORK</text>
<text text-anchor="middle" x="868.5" y="-194.54" font-family="Times,serif" font-size="14.00">z</text>
</g>
<!-- N22 -->
<g id="node19" class="node">
<title>N22</title>
<polygon fill="#de707f" fill-opacity="0.466667" stroke="black" stroke-width="0" points="720,-53.37 600,-53.37 600,-0.37 720,-0.37 720,-53.37"/>
<text text-anchor="middle" x="660" y="-38.17" font-family="Times,serif" font-size="14.00">add (22)</text>
<text text-anchor="middle" x="660" y="-23.17" font-family="Times,serif" font-size="14.00">State: finished</text>
<text text-anchor="middle" x="660" y="-8.17" font-family="Times,serif" font-size="14.00">Exit Code: 0</text>
</g>
<!-- N21&#45;&gt;N22 -->
<g id="edge23" class="edge">
<title>N21&#45;&gt;N22</title>
<path fill="none" stroke="#000000" stroke-dasharray="1,5" d="M757.84,-119.59C747.83,-114.28 737.85,-108.29 729,-101.74 713.43,-90.22 698.47,-74.91 686.48,-61.21"/>
<polygon fill="#000000" stroke="#000000" points="688.93,-58.7 679.78,-53.38 683.61,-63.25 688.93,-58.7"/>
<text text-anchor="middle" x="771.5" y="-90.54" font-family="Times,serif" font-size="14.00">CALL_CALC</text>
<text text-anchor="middle" x="771.5" y="-75.54" font-family="Times,serif" font-size="14.00">CALL</text>
</g>
<!-- N25 -->
<g id="node20" class="node">
<title>N25</title>
<ellipse fill="#8cd499" stroke="black" stroke-width="0" cx="818" cy="-26.87" rx="79.81" ry="26.74"/>
<text text-anchor="middle" x="818" y="-30.67" font-family="Times,serif" font-size="14.00">Float (25)</text>
<text text-anchor="middle" x="818" y="-15.67" font-family="Times,serif" font-size="14.00">value: 2460.0</text>
</g>
<!-- N21&#45;&gt;N25 -->
<g id="edge22" class="edge">
<title>N21&#45;&gt;N25</title>
<path fill="none" stroke="#000000" stroke-dasharray="5,2" d="M818,-119.48C818,-103.24 818,-82.01 818,-64.09"/>
<polygon fill="#000000" stroke="#000000" points="821.5,-63.97 818,-53.97 814.5,-63.97 821.5,-63.97"/>
<text text-anchor="middle" x="850.5" y="-90.54" font-family="Times,serif" font-size="14.00">RETURN</text>
<text text-anchor="middle" x="850.5" y="-75.54" font-family="Times,serif" font-size="14.00">result</text>
</g>
<!-- N24 -->
<g id="node21" class="node">
<title>N24</title>
<polygon fill="#de707f" fill-opacity="0.466667" stroke="black" stroke-width="0" points="1036,-53.37 916,-53.37 916,-0.37 1036,-0.37 1036,-53.37"/>
<text text-anchor="middle" x="976" y="-38.17" font-family="Times,serif" font-size="14.00">multiply (24)</text>
<text text-anchor="middle" x="976" y="-23.17" font-family="Times,serif" font-size="14.00">State: finished</text>
<text text-anchor="middle" x="976" y="-8.17" font-family="Times,serif" font-size="14.00">Exit Code: 0</text>
</g>
<!-- N21&#45;&gt;N24 -->
<g id="edge24" class="edge">
<title>N21&#45;&gt;N24</title>
<path fill="none" stroke="#000000" stroke-dasharray="1,5" d="M860.54,-119.64C869.43,-113.96 878.63,-107.81 887,-101.74 904.72,-88.89 923.48,-73.59 939.19,-60.25"/>
<polygon fill="#000000" stroke="#000000" points="941.78,-62.64 947.1,-53.49 937.23,-57.33 941.78,-62.64"/>
<text text-anchor="middle" x="966.5" y="-90.54" font-family="Times,serif" font-size="14.00">CALL_CALC</text>
<text text-anchor="middle" x="966.5" y="-75.54" font-family="Times,serif" font-size="14.00">CALL</text>
</g>
</g>
</svg>
